<svg xmlns="http://www.w3.org/2000/svg" viewBox="0 0 128 80" width="128" height="80">
	<style>
		tspan { white-space:pre }
		.shp0 { fill: #0e4595 } 
		.shp1 { fill: #ffffff } 
		.shp2 { fill: #f2ae14 } 
	</style>
	<g id="Layer">
		<path id="Layer" class="shp0" d="M6.83 0L121.17 0C124.95 0 128 3.04 128 6.79L128 73.21C128 76.96 124.95 80 121.17 80L6.83 80C3.05 80 0 76.96 0 73.21L0 6.79C0 3.04 3.05 0 6.83 0Z" />
		<path id="Layer" fill-rule="evenodd" class="shp1" d="M47.48 56.77L53.17 23.52L62.28 23.52L56.58 56.77L47.48 56.77ZM89.48 24.24L88.25 31.44L87.43 31.06C85.75 30.39 83.59 29.74 80.62 29.78C77.05 29.78 75.4 31.26 75.4 32.64C75.38 34.2 77.33 35.23 80.51 36.77C85.77 39.14 88.19 42.02 88.16 45.8C88.09 52.7 81.87 57.16 72.3 57.16C68.22 57.12 64.28 56.32 62.16 55.39L63.43 47.94L64.61 48.47C67.6 49.71 69.54 50.22 73.18 50.22C75.8 50.22 78.61 49.2 78.63 46.97C78.64 45.51 77.45 44.48 73.91 42.85C70.45 41.26 65.88 38.59 65.93 33.81C65.98 27.35 72.32 22.84 81.32 22.84C84.85 22.84 87.68 23.56 89.48 24.24M120.29 56.75L111.84 56.75C111.84 56.75 111 52.93 110.73 51.77C109.4 51.77 100.11 51.75 99.07 51.75C98.71 52.65 97.15 56.75 97.15 56.75L87.59 56.75L101.11 26.28C102.07 24.11 103.7 23.52 105.88 23.52L112.92 23.52L120.29 56.75ZM109.31 44.99C108.95 43.32 107.2 35.39 107.2 35.39L106.59 32.52C106.13 33.77 105.33 35.78 105.38 35.69C105.38 35.69 102.5 43.07 101.75 44.99L109.31 44.99ZM49.4 23.52L35.06 56.71L25.42 56.72L17.27 27.64C23.05 30.52 28.22 36.27 29.88 41.59L30.83 46.19L39.75 23.52L49.4 23.52Z" />
		<path id="Layer" fill-rule="evenodd" class="shp2" d="M22.51 23.52L7.83 23.52L7.71 24.21C19.14 26.96 26.7 33.61 29.84 41.61L26.64 26.33C26.09 24.22 24.49 23.59 22.51 23.52" />
	</g>
</svg>